<svg width="512" height="336" viewBox="0 0 512 336" fill="none" xmlns="http://www.w3.org/2000/svg">
<path d="M98.016 0.287987C66.016 0.287987 40 26.272 40 58.272V319.712H0V336H512V320.288L472 320.224V58.24C472 26.24 445.984 0.255981 413.984 0.255981L98.016 0.287987ZM98.016 16.288H413.952C437.152 16.288 455.936 35.104 455.936 58.272V320.224L388.576 320.16C375.324 296.599 356.044 276.987 332.713 263.333C309.382 249.68 282.84 242.477 255.808 242.464C228.839 242.497 202.361 249.674 179.068 263.266C155.774 276.857 136.498 296.378 123.2 319.84L56 319.776V58.272C56 35.104 74.848 16.288 98.016 16.288ZM256.768 83.52C237.762 83.5369 219.54 91.0944 206.101 104.533C192.662 117.972 185.105 136.194 185.088 155.2C185.105 174.205 192.662 192.428 206.101 205.867C219.54 219.306 237.762 226.863 256.768 226.88C275.785 226.872 294.022 219.32 307.478 205.882C320.934 192.444 328.51 174.217 328.544 155.2C328.51 136.183 320.934 117.956 307.478 104.518C294.022 91.0801 275.785 83.5284 256.768 83.52ZM256.768 99.52C287.488 99.52 312.544 124.48 312.544 155.2C312.544 185.92 287.488 210.88 256.768 210.88C226.048 210.88 201.088 185.92 201.088 155.2C201.088 124.48 226.048 99.52 256.768 99.52ZM255.84 258.464C301.984 258.464 344.48 281.92 369.664 320.096L142.144 319.84C154.549 301.012 171.426 285.552 191.267 274.842C211.108 264.131 233.293 258.504 255.84 258.464Z" fill="#1A56DB"/>
</svg>
